<svg
  width="200"
  height="163"
  viewBox="0 0 145 118"
  fill="none"
  xmlns="http://www.w3.org/2000/svg"
>
  <path
    d="M0.38 4.1C0.38 1.84 1.52 0.709999 3.8 0.709999C4.68 0.709999 5.47 0.869999 6.17 1.19V2.705C5.48 2.455 4.85 2.33 4.28 2.33C2.9 2.33 2.21 2.965 2.21 4.235V10.25L1.28 11H0.38V4.1ZM10.8631 0.815H11.7931C11.8231 0.825 11.8781 0.85 11.9581 0.89C12.1581 0.98 12.3431 1.155 12.5131 1.415C12.7431 1.745 12.9131 2.175 13.0231 2.705L15.0331 11H13.1731L11.3431 2.78L9.51313 11H7.65313L9.64813 2.705C9.76813 2.235 9.90813 1.855 10.0681 1.565C10.2481 1.245 10.4581 1.02 10.6981 0.89C10.7081 0.88 10.7231 0.87 10.7431 0.859999C10.7931 0.839999 10.8331 0.825 10.8631 0.815ZM19.1545 2.195H20.1895C21.2195 2.525 22.0195 3.295 22.5895 4.505C23.0295 5.435 23.2495 6.415 23.2495 7.445C23.2495 8.685 22.9145 9.625 22.2445 10.265C21.6345 10.845 20.7895 11.135 19.7095 11.135C18.4795 11.135 17.5595 10.76 16.9495 10.01C16.4395 9.38 16.1845 8.525 16.1845 7.445C16.1845 6.235 16.4545 5.13 16.9945 4.13C17.5445 3.13 18.2645 2.485 19.1545 2.195ZM19.7695 3.665H19.6645C19.1945 3.855 18.7995 4.34 18.4795 5.12C18.1595 5.86 17.9995 6.58 17.9995 7.28C17.9995 7.97 18.1095 8.51 18.3295 8.9C18.5895 9.37 19.0495 9.605 19.7095 9.605C20.8495 9.605 21.4195 8.86 21.4195 7.37C21.4195 6.58 21.2545 5.81 20.9245 5.06C20.5945 4.31 20.2095 3.845 19.7695 3.665ZM32.6611 0.904999L28.8961 11H27.2161L30.9811 0.904999H32.6611ZM39.5079 6.875C38.5479 6.875 37.7779 6.63 37.1979 6.14C36.5579 5.62 36.2379 4.865 36.2379 3.875C36.2379 2.945 36.5129 2.195 37.0629 1.625C37.6429 1.015 38.4129 0.709999 39.3729 0.709999C40.1629 0.709999 40.8179 0.904999 41.3379 1.295C42.0479 1.815 42.4029 2.555 42.4029 3.515V10.25L41.4729 11H40.5729V6.875H39.5079ZM40.5729 3.5C40.5729 3.13 40.4579 2.83 40.2279 2.6C39.9979 2.37 39.7129 2.255 39.3729 2.255C38.9429 2.255 38.5929 2.4 38.3229 2.69C38.0829 2.96 37.9629 3.32 37.9629 3.77C37.9729 4.32 38.1329 4.715 38.4429 4.955C38.7429 5.205 39.2029 5.33 39.8229 5.33H40.5729V3.5ZM44.5516 1.19C45.2516 0.869999 46.0416 0.709999 46.9216 0.709999C49.2016 0.709999 50.3416 1.84 50.3416 4.1V10.25L49.4266 11H48.5116V4.235C48.5116 2.965 47.8266 2.33 46.4566 2.33C45.8766 2.33 45.2416 2.455 44.5516 2.705V1.19ZM55.3947 2.195H56.4297C57.4597 2.525 58.2597 3.295 58.8297 4.505C59.2697 5.435 59.4897 6.415 59.4897 7.445C59.4897 8.685 59.1547 9.625 58.4847 10.265C57.8747 10.845 57.0297 11.135 55.9497 11.135C54.7197 11.135 53.7997 10.76 53.1897 10.01C52.6797 9.38 52.4247 8.525 52.4247 7.445C52.4247 6.235 52.6947 5.13 53.2347 4.13C53.7847 3.13 54.5047 2.485 55.3947 2.195ZM56.0097 3.665H55.9047C55.4347 3.855 55.0397 4.34 54.7197 5.12C54.3997 5.86 54.2397 6.58 54.2397 7.28C54.2397 7.97 54.3497 8.51 54.5697 8.9C54.8297 9.37 55.2897 9.605 55.9497 9.605C57.0897 9.605 57.6597 8.86 57.6597 7.37C57.6597 6.58 57.4947 5.81 57.1647 5.06C56.8347 4.31 56.4497 3.845 56.0097 3.665ZM67.9345 0.904999L64.1695 11H62.4895L66.2545 0.904999H67.9345ZM71.8563 1.19C72.5563 0.869999 73.3463 0.709999 74.2263 0.709999C76.5063 0.709999 77.6463 1.84 77.6463 4.1V10.25L76.7313 11H75.8163V4.235C75.8163 2.965 75.1313 2.33 73.7613 2.33C73.1813 2.33 72.5463 2.455 71.8563 2.705V1.19ZM82.9844 6.875C82.0244 6.875 81.2544 6.63 80.6744 6.14C80.0344 5.62 79.7144 4.865 79.7144 3.875C79.7144 2.945 79.9894 2.195 80.5394 1.625C81.1194 1.015 81.8894 0.709999 82.8494 0.709999C83.6394 0.709999 84.2944 0.904999 84.8144 1.295C85.5244 1.815 85.8794 2.555 85.8794 3.515V10.25L84.9494 11H84.0494V6.875H82.9844ZM84.0494 3.5C84.0494 3.13 83.9344 2.83 83.7044 2.6C83.4744 2.37 83.1894 2.255 82.8494 2.255C82.4194 2.255 82.0694 2.4 81.7994 2.69C81.5594 2.96 81.4394 3.32 81.4394 3.77C81.4494 4.32 81.6094 4.715 81.9194 4.955C82.2194 5.205 82.6794 5.33 83.2994 5.33H84.0494V3.5ZM94.8232 0.859999L92.8132 9.17C92.7332 9.56 92.6182 9.905 92.4682 10.205C92.2782 10.575 92.0382 10.83 91.7482 10.97C91.6682 11.01 91.6132 11.035 91.5832 11.045H90.6532C90.6232 11.035 90.5782 11.015 90.5182 10.985C90.5082 10.975 90.4982 10.97 90.4882 10.97C90.2182 10.82 89.9982 10.57 89.8282 10.22C89.6682 9.91 89.5382 9.56 89.4382 9.17L87.4432 0.859999H89.3032L91.1332 9.08L92.9632 0.859999H94.8232ZM100.282 5.99C100.552 5.99 100.782 6.085 100.972 6.275C101.162 6.465 101.257 6.695 101.257 6.965C101.257 7.225 101.162 7.45 100.972 7.64C100.782 7.83 100.552 7.925 100.282 7.925C100.022 7.925 99.7971 7.83 99.6071 7.64C99.4171 7.45 99.3221 7.225 99.3221 6.965C99.3221 6.695 99.4171 6.465 99.6071 6.275C99.7971 6.085 100.022 5.99 100.282 5.99ZM100.297 9.14C100.567 9.14 100.792 9.235 100.972 9.425C101.162 9.605 101.257 9.83 101.257 10.1C101.257 10.37 101.162 10.6 100.972 10.79C100.782 10.98 100.557 11.075 100.297 11.075C100.027 11.075 99.7971 10.98 99.6071 10.79C99.4171 10.6 99.3221 10.37 99.3221 10.1C99.3221 9.83 99.4171 9.605 99.6071 9.425C99.7971 9.235 100.027 9.14 100.297 9.14ZM120.055 0.8C120.325 0.8 120.555 0.895 120.745 1.085C120.935 1.275 121.03 1.505 121.03 1.775C121.03 2.035 120.935 2.26 120.745 2.45C120.555 2.64 120.325 2.735 120.055 2.735C119.795 2.735 119.57 2.64 119.38 2.45C119.19 2.26 119.095 2.035 119.095 1.775C119.095 1.505 119.19 1.275 119.38 1.085C119.57 0.895 119.795 0.8 120.055 0.8ZM116.065 6.62C117.395 4.81 119.05 3.905 121.03 3.905C122.23 3.905 123.22 4.285 124 5.045C124.71 5.725 125.065 6.58 125.065 7.61V9.35C125.065 9.82 124.895 10.215 124.555 10.535C124.225 10.845 123.855 11 123.445 11H116.065C115.985 12.23 115.495 13.16 114.595 13.79C113.865 14.32 112.94 14.585 111.82 14.585H110.335C108.905 14.585 107.81 14.175 107.05 13.355C106.4 12.685 106.075 11.78 106.075 10.64V7.955L107.005 7.205H107.905V10.475C107.905 11.425 108.14 12.09 108.61 12.47C109.09 12.86 109.915 13.055 111.085 13.055C112.215 13.055 113.01 12.88 113.47 12.53C113.99 12.13 114.25 11.445 114.25 10.475V4.1H116.08L116.065 6.62ZM123.235 7.7C123.235 7.1 123.03 6.595 122.62 6.185C122.13 5.715 121.505 5.48 120.745 5.48C119.975 5.48 119.235 5.725 118.525 6.215C117.515 6.905 116.695 7.99 116.065 9.47H122.86C123.11 9.47 123.235 9.345 123.235 9.095V7.7ZM127.88 9.14C128.15 9.14 128.38 9.235 128.57 9.425C128.76 9.605 128.855 9.83 128.855 10.1C128.855 10.37 128.76 10.6 128.57 10.79C128.38 10.98 128.15 11.075 127.88 11.075C127.62 11.075 127.395 10.98 127.205 10.79C127.015 10.6 126.92 10.37 126.92 10.1C126.92 9.83 127.01 9.605 127.19 9.425C127.38 9.235 127.61 9.14 127.88 9.14ZM143.564 4.1V9.35C143.564 9.77 143.434 10.125 143.174 10.415C142.854 10.805 142.444 11 141.944 11H133.544C132.894 11 132.334 10.79 131.864 10.37C131.234 9.84 130.919 9.15 130.919 8.3V5.93L131.849 5.18H132.749V8.3C132.749 8.65 132.869 8.935 133.109 9.155C133.339 9.365 133.604 9.47 133.904 9.47H141.359C141.609 9.47 141.734 9.345 141.734 9.095V4.1H143.564ZM137.249 12.095C137.519 12.095 137.749 12.19 137.939 12.38C138.129 12.57 138.224 12.8 138.224 13.07C138.224 13.34 138.129 13.57 137.939 13.76C137.749 13.95 137.519 14.045 137.249 14.045C136.979 14.045 136.749 13.95 136.559 13.76C136.369 13.57 136.274 13.34 136.274 13.07C136.274 12.8 136.369 12.57 136.559 12.38C136.749 12.19 136.979 12.095 137.249 12.095Z"
    fill="black"
  ></path>
  <path
    d="M50.66 22.815H51.59C51.62 22.825 51.675 22.85 51.755 22.89C51.955 22.98 52.14 23.155 52.31 23.415C52.54 23.745 52.71 24.175 52.82 24.705L54.83 33H52.97L51.14 24.78L49.31 33H47.45L49.445 24.705C49.565 24.235 49.705 23.855 49.865 23.565C50.045 23.245 50.255 23.02 50.495 22.89C50.505 22.88 50.52 22.87 50.54 22.86C50.59 22.84 50.63 22.825 50.66 22.815ZM58.4864 22.89V26.64C58.8164 26.74 59.1514 26.79 59.4914 26.79C59.9514 26.79 60.2614 26.71 60.4214 26.55C60.5614 26.4 60.6314 26.145 60.6314 25.785V22.89H62.1914V25.845C62.1914 26.115 62.1664 26.345 62.1164 26.535C62.5264 26.695 62.9014 26.775 63.2414 26.775C63.6714 26.775 63.9664 26.695 64.1264 26.535C64.2564 26.395 64.3214 26.14 64.3214 25.77V22.89H65.8664V25.785C65.8664 26.285 65.8064 26.7 65.6864 27.03C65.5464 27.35 65.3614 27.605 65.1314 27.795C64.7014 28.155 64.1314 28.335 63.4214 28.335C62.5114 28.335 61.8064 28.18 61.3064 27.87C60.8264 28.18 60.2764 28.335 59.6564 28.335C59.4064 28.335 59.0164 28.285 58.4864 28.185V32.25L57.5564 33H56.6564V22.89H58.4864ZM69.4141 22.89V26.64C69.7441 26.74 70.0791 26.79 70.4191 26.79C70.8791 26.79 71.1891 26.71 71.3491 26.55C71.4891 26.4 71.5591 26.145 71.5591 25.785V22.89H73.1191V25.845C73.1191 26.115 73.0941 26.345 73.0441 26.535C73.4541 26.695 73.8291 26.775 74.1691 26.775C74.5991 26.775 74.8941 26.695 75.0541 26.535C75.1841 26.395 75.2491 26.14 75.2491 25.77V22.89H76.7941V25.785C76.7941 26.285 76.7341 26.7 76.6141 27.03C76.4741 27.35 76.2891 27.605 76.0591 27.795C75.6291 28.155 75.0591 28.335 74.3491 28.335C73.4391 28.335 72.7341 28.18 72.2341 27.87C71.7541 28.18 71.2041 28.335 70.5841 28.335C70.3341 28.335 69.9441 28.285 69.4141 28.185V32.25L68.4841 33H67.5841V22.89H69.4141ZM81.2902 24.195H82.3252C83.3552 24.525 84.1552 25.295 84.7252 26.505C85.1652 27.435 85.3852 28.415 85.3852 29.445C85.3852 30.685 85.0502 31.625 84.3802 32.265C83.7702 32.845 82.9252 33.135 81.8452 33.135C80.6152 33.135 79.6952 32.76 79.0852 32.01C78.5752 31.38 78.3202 30.525 78.3202 29.445C78.3202 28.235 78.5902 27.13 79.1302 26.13C79.6802 25.13 80.4002 24.485 81.2902 24.195ZM81.9052 25.665H81.8002C81.3302 25.855 80.9352 26.34 80.6152 27.12C80.2952 27.86 80.1352 28.58 80.1352 29.28C80.1352 29.97 80.2452 30.51 80.4652 30.9C80.7252 31.37 81.1852 31.605 81.8452 31.605C82.9852 31.605 83.5552 30.86 83.5552 29.37C83.5552 28.58 83.3902 27.81 83.0602 27.06C82.7302 26.31 82.3452 25.845 81.9052 25.665ZM87.3595 26.1C87.3595 23.84 88.4995 22.71 90.7795 22.71C91.6595 22.71 92.4495 22.87 93.1495 23.19V24.705C92.4595 24.455 91.8295 24.33 91.2595 24.33C89.8795 24.33 89.1895 24.965 89.1895 26.235V32.25L88.2595 33H87.3595V26.1ZM98.4481 27.99C98.7181 27.99 98.9481 28.085 99.1381 28.275C99.3281 28.465 99.4231 28.695 99.4231 28.965C99.4231 29.225 99.3281 29.45 99.1381 29.64C98.9481 29.83 98.7181 29.925 98.4481 29.925C98.1881 29.925 97.9631 29.83 97.7731 29.64C97.5831 29.45 97.4881 29.225 97.4881 28.965C97.4881 28.695 97.5831 28.465 97.7731 28.275C97.9631 28.085 98.1881 27.99 98.4481 27.99ZM98.4631 31.14C98.7331 31.14 98.9581 31.235 99.1381 31.425C99.3281 31.605 99.4231 31.83 99.4231 32.1C99.4231 32.37 99.3281 32.6 99.1381 32.79C98.9481 32.98 98.7231 33.075 98.4631 33.075C98.1931 33.075 97.9631 32.98 97.7731 32.79C97.5831 32.6 97.4881 32.37 97.4881 32.1C97.4881 31.83 97.5831 31.605 97.7731 31.425C97.9631 31.235 98.1931 31.14 98.4631 31.14ZM109.431 25.695C109.701 25.695 109.931 25.79 110.121 25.98C110.311 26.17 110.406 26.4 110.406 26.67C110.406 26.94 110.311 27.17 110.121 27.36C109.931 27.55 109.701 27.645 109.431 27.645C109.171 27.645 108.946 27.55 108.756 27.36C108.566 27.17 108.471 26.94 108.471 26.67C108.471 26.4 108.566 26.17 108.756 25.98C108.946 25.79 109.171 25.695 109.431 25.695ZM111.726 25.695C111.986 25.695 112.211 25.79 112.401 25.98C112.591 26.17 112.686 26.4 112.686 26.67C112.686 26.94 112.591 27.17 112.401 27.36C112.211 27.55 111.986 27.645 111.726 27.645C111.456 27.645 111.226 27.55 111.036 27.36C110.846 27.17 110.751 26.94 110.751 26.67C110.751 26.4 110.846 26.17 111.036 25.98C111.226 25.79 111.456 25.695 111.726 25.695ZM116.886 26.1V31.35C116.886 31.77 116.756 32.125 116.496 32.415C116.176 32.805 115.766 33 115.266 33H106.866C106.216 33 105.656 32.79 105.186 32.37C104.556 31.84 104.241 31.15 104.241 30.3V27.93L105.171 27.18H106.071V30.3C106.071 30.65 106.191 30.935 106.431 31.155C106.661 31.365 106.926 31.47 107.226 31.47H114.681C114.931 31.47 115.056 31.345 115.056 31.095V26.1H116.886ZM119.923 31.14C120.193 31.14 120.423 31.235 120.613 31.425C120.803 31.605 120.898 31.83 120.898 32.1C120.898 32.37 120.803 32.6 120.613 32.79C120.423 32.98 120.193 33.075 119.923 33.075C119.663 33.075 119.438 32.98 119.248 32.79C119.058 32.6 118.963 32.37 118.963 32.1C118.963 31.83 119.053 31.605 119.233 31.425C119.423 31.235 119.653 31.14 119.923 31.14ZM143.002 26.1V31.35C143.002 31.8 142.842 32.19 142.522 32.52C142.212 32.84 141.832 33 141.382 33H138.232L137.662 32.385H137.617C137.287 32.795 136.867 33 136.357 33H132.952C132.862 34.2 132.402 35.11 131.572 35.73C130.832 36.3 129.877 36.585 128.707 36.585H127.222C125.872 36.585 124.807 36.21 124.027 35.46C123.317 34.77 122.962 33.83 122.962 32.64V29.955L123.892 29.205H124.792V32.475C124.792 33.425 125.027 34.09 125.497 34.47C125.977 34.86 126.797 35.055 127.957 35.055C129.087 35.055 129.887 34.88 130.357 34.53C130.877 34.13 131.137 33.445 131.137 32.475V27.825H132.967V31.47H135.772C136.022 31.47 136.147 31.345 136.147 31.095V26.955H137.977V30.975C137.977 31.195 137.972 31.36 137.962 31.47H140.797C141.047 31.47 141.172 31.345 141.172 31.095V26.1H143.002Z"
    fill="black"
  ></path>
  <rect x="17" y="56" width="128" height="31" rx="10" fill="#36419E"></rect>
  <path
    d="M47.71 63.04C48.0033 63.04 48.2527 63.15 48.458 63.37C48.678 63.5753 48.788 63.8247 48.788 64.118C48.788 64.426 48.678 64.69 48.458 64.91C48.2527 65.1153 48.0033 65.218 47.71 65.218C47.4167 65.218 47.16 65.1153 46.94 64.91C46.7347 64.69 46.632 64.426 46.632 64.118C46.632 63.8247 46.7347 63.5753 46.94 63.37C47.16 63.15 47.4167 63.04 47.71 63.04ZM50.372 63.04C50.68 63.04 50.9367 63.15 51.142 63.37C51.362 63.5753 51.472 63.8247 51.472 64.118C51.472 64.426 51.362 64.69 51.142 64.91C50.9367 65.1153 50.68 65.218 50.372 65.218C50.0787 65.218 49.822 65.1153 49.602 64.91C49.3967 64.69 49.294 64.426 49.294 64.118C49.294 63.8247 49.3967 63.5753 49.602 63.37C49.822 63.15 50.0787 63.04 50.372 63.04ZM51.472 67.286V74.216C51.472 75.404 51.1347 76.3427 50.46 77.032C49.712 77.8093 48.5827 78.198 47.072 78.198C45.752 78.198 44.6813 77.8607 43.86 77.186C42.76 76.2767 42.21 74.9053 42.21 73.072C42.21 71.4147 42.716 70.0507 43.728 68.98C44.6667 67.9973 45.84 67.506 47.248 67.506C48.0253 67.506 48.81 67.682 49.602 68.034L50.548 67.286H51.472ZM49.602 69.574C48.9567 69.2513 48.304 69.09 47.644 69.09C46.4853 69.09 45.576 69.5447 44.916 70.454C44.3587 71.1873 44.08 72.0673 44.08 73.094C44.08 74.2233 44.344 75.096 44.872 75.712C45.4 76.328 46.1333 76.636 47.072 76.636C47.952 76.636 48.5973 76.4087 49.008 75.954C49.404 75.514 49.602 74.9273 49.602 74.194V69.574ZM58.9817 67.88V77.802C58.9817 79.43 58.5197 80.7133 57.5957 81.652C56.8771 82.3853 55.9091 82.8693 54.6917 83.104C54.2224 83.192 53.7091 83.236 53.1517 83.236C52.7997 83.236 52.4624 83.2287 52.1397 83.214L51.4137 82.312V81.608C51.8391 81.6667 52.3011 81.696 52.7997 81.696C55.6744 81.696 57.1117 80.376 57.1117 77.736V67.88H58.9817ZM66.7113 78C65.0393 78 63.756 77.4427 62.8613 76.328C62.1133 75.404 61.7393 74.216 61.7393 72.764C61.7393 71.1067 62.238 69.816 63.2353 68.892C64.13 68.0413 65.3106 67.616 66.7773 67.616C67.9213 67.616 68.8746 67.902 69.6373 68.474C70.5613 69.1927 71.0233 70.2413 71.0233 71.62V76.438H71.7273V78H71.0233C70.9646 79.54 70.5026 80.75 69.6373 81.63C68.9773 82.3047 68.1193 82.7667 67.0633 83.016C66.462 83.1627 65.8313 83.236 65.1713 83.236C64.8193 83.236 64.482 83.2287 64.1593 83.214L63.4333 82.312V81.608C63.8733 81.6667 64.3353 81.696 64.8193 81.696C67.6206 81.696 69.058 80.464 69.1313 78H66.7113ZM69.1313 71.62C69.1313 70.872 68.9113 70.278 68.4713 69.838C68.046 69.4127 67.4813 69.2 66.7773 69.2C65.7946 69.2 65.0173 69.53 64.4453 70.19C63.888 70.85 63.6093 71.7667 63.6093 72.94C63.6093 73.9813 63.8953 74.8247 64.4673 75.47C65.0393 76.1153 65.78 76.438 66.6893 76.438H69.1313V71.62ZM75.6187 76.438V78H71.5487V76.438H75.6187ZM79.5289 76.438V78H75.4589V76.438H79.5289ZM83.439 76.438V78H79.369V76.438H83.439ZM87.3492 76.438V78H83.2792V76.438H87.3492ZM91.2593 76.438V78H87.1893V76.438H91.2593ZM95.1695 76.438V78H91.0995V76.438H95.1695ZM97.2757 63.04C97.5837 63.04 97.8403 63.15 98.0457 63.37C98.251 63.5753 98.3537 63.8247 98.3537 64.118C98.3537 64.426 98.251 64.69 98.0457 64.91C97.8403 65.1153 97.5837 65.218 97.2757 65.218C96.9823 65.218 96.7257 65.1153 96.5057 64.91C96.3003 64.69 96.1977 64.426 96.1977 64.118C96.1977 63.8247 96.3003 63.5753 96.5057 63.37C96.7257 63.15 96.9823 63.04 97.2757 63.04ZM99.9597 63.04C100.253 63.04 100.502 63.15 100.708 63.37C100.928 63.5753 101.038 63.8247 101.038 64.118C101.038 64.426 100.928 64.69 100.708 64.91C100.502 65.1153 100.253 65.218 99.9597 65.218C99.6517 65.218 99.3877 65.1153 99.1677 64.91C98.9623 64.69 98.8597 64.426 98.8597 64.118C98.8597 63.8247 98.9623 63.5753 99.1677 63.37C99.3877 63.15 99.6517 63.04 99.9597 63.04ZM100.84 67.88V75.91C100.84 76.4527 100.664 76.922 100.312 77.318C99.9157 77.7727 99.4243 78 98.8377 78H95.0097V76.438H98.1337C98.383 76.438 98.5883 76.35 98.7497 76.174C98.8963 76.0273 98.9697 75.8367 98.9697 75.602V67.88H100.84ZM105.941 62.248V75.602C105.941 75.8367 106.014 76.0347 106.161 76.196C106.322 76.3573 106.527 76.438 106.777 76.438H107.063V78H106.051C105.581 78 105.171 77.846 104.819 77.538C104.32 77.1127 104.071 76.57 104.071 75.91V62.248H105.941ZM115.47 63.04C115.778 63.04 116.035 63.15 116.24 63.37C116.46 63.5753 116.57 63.8247 116.57 64.118C116.57 64.426 116.46 64.69 116.24 64.91C116.035 65.1153 115.778 65.218 115.47 65.218C115.177 65.218 114.92 65.1153 114.7 64.91C114.495 64.69 114.392 64.426 114.392 64.118C114.392 63.8247 114.495 63.5753 114.7 63.37C114.92 63.15 115.177 63.04 115.47 63.04ZM111.84 76.438C111.283 75.9247 110.872 75.2867 110.608 74.524C110.403 73.908 110.3 73.2993 110.3 72.698C110.3 71.1287 110.769 69.882 111.708 68.958C112.632 68.0633 113.886 67.616 115.47 67.616C116.673 67.616 117.633 67.924 118.352 68.54C119.188 69.244 119.621 70.2707 119.65 71.62V75.91C119.65 76.482 119.452 76.9733 119.056 77.384C118.675 77.7947 118.213 78 117.67 78H106.912V76.438H111.84ZM117.758 71.62C117.758 70.7987 117.516 70.168 117.032 69.728C116.651 69.376 116.13 69.2 115.47 69.2C114.253 69.2 113.358 69.6253 112.786 70.476C112.375 71.0627 112.17 71.8253 112.17 72.764C112.185 73.7613 112.507 74.612 113.138 75.316C113.798 76.064 114.671 76.438 115.756 76.438H116.944C117.487 76.438 117.758 76.1593 117.758 75.602V71.62Z"
    fill="white"
  ></path>
  <rect x="17" y="96" width="128" height="22" fill="white"></rect>
</svg>
