<svg
  width="250"
  height="80"
  viewBox="0 0 186 59"
  fill="none"
  xmlns="http://www.w3.org/2000/svg"
>
  <path
    d="M15.675 11.085C16.485 11.085 17.175 11.37 17.745 11.94C18.315 12.51 18.6 13.2 18.6 14.01C18.6 14.82 18.315 15.51 17.745 16.08C17.175 16.65 16.485 16.935 15.675 16.935C14.895 16.935 14.22 16.65 13.65 16.08C13.08 15.51 12.795 14.82 12.795 14.01C12.795 13.2 13.08 12.51 13.65 11.94C14.22 11.37 14.895 11.085 15.675 11.085ZM22.56 11.085C23.34 11.085 24.015 11.37 24.585 11.94C25.155 12.51 25.44 13.2 25.44 14.01C25.44 14.82 25.155 15.51 24.585 16.08C24.015 16.65 23.34 16.935 22.56 16.935C21.75 16.935 21.06 16.65 20.49 16.08C19.92 15.51 19.635 14.82 19.635 14.01C19.635 13.2 19.92 12.51 20.49 11.94C21.06 11.37 21.75 11.085 22.56 11.085ZM38.04 12.3V28.05C38.04 29.31 37.65 30.375 36.87 31.245C35.91 32.415 34.68 33 33.18 33H7.98C6.03 33 4.35 32.37 2.94 31.11C1.05 29.52 0.105 27.45 0.105 24.9V17.79L2.895 15.54H5.595V24.9C5.595 25.95 5.955 26.805 6.675 27.465C7.365 28.095 8.16 28.41 9.06 28.41H31.425C32.175 28.41 32.55 28.035 32.55 27.285V12.3H38.04ZM49.76 0.779999V27.285C49.76 27.585 49.85 27.825 50.03 28.005C50.21 28.275 50.495 28.41 50.885 28.41H52.055V33H49.13C47.9 33 46.82 32.565 45.89 31.695C44.81 30.705 44.27 29.49 44.27 28.05V0.779999H49.76ZM60.0777 28.41V33H51.7527V28.41H60.0777ZM68.0757 28.41V33H59.7507V28.41H68.0757ZM76.0738 28.41V33H67.7488V28.41H76.0738ZM84.0718 28.41V33H75.7468V28.41H84.0718ZM92.0699 28.41V33H83.7449V28.41H92.0699ZM100.068 28.41V33H91.7429V28.41H100.068ZM108.066 28.41V33H99.741V28.41H108.066ZM116.064 28.41V33H107.739V28.41H116.064ZM121.722 13.065C124.692 12.195 127.287 11.76 129.507 11.76C133.137 11.76 136.062 12.9 138.282 15.18C140.292 17.25 141.297 19.83 141.297 22.92V28.05C141.297 29.28 140.877 30.39 140.037 31.38C139.047 32.46 137.847 33 136.437 33H115.737V28.41H134.682C135.432 28.41 135.807 28.035 135.807 27.285V23.235C135.807 21.135 135.117 19.485 133.737 18.285C132.387 17.085 130.512 16.485 128.112 16.485C126.732 16.485 124.602 16.8 121.722 17.43V13.065ZM157.417 12.3V28.41H159.712V33H157.372C157.132 36.6 155.707 39.36 153.097 41.28C150.937 42.87 148.282 43.665 145.132 43.665C144.592 43.665 144.007 43.65 143.377 43.62L141.172 40.875V38.94C142.132 39.09 143.062 39.165 143.962 39.165C149.272 39.165 151.927 36.585 151.927 31.425V12.3H157.417ZM176.879 2.4C177.689 2.4 178.379 2.685 178.949 3.255C179.519 3.825 179.804 4.515 179.804 5.325C179.804 6.105 179.519 6.78 178.949 7.35C178.379 7.92 177.689 8.205 176.879 8.205C176.099 8.205 175.424 7.92 174.854 7.35C174.284 6.78 173.999 6.105 173.999 5.325C173.999 4.515 174.284 3.825 174.854 3.255C175.424 2.685 176.099 2.4 176.879 2.4ZM168.464 28.41C167.774 27.54 167.234 26.505 166.844 25.305C166.514 24.165 166.349 23.025 166.349 21.885C166.349 19.245 167.114 17.04 168.644 15.27C170.594 12.93 173.339 11.76 176.879 11.76C179.399 11.76 181.499 12.435 183.179 13.785C185.009 15.345 185.924 17.445 185.924 20.085V28.05C185.924 29.28 185.519 30.375 184.709 31.335C183.749 32.445 182.534 33 181.064 33H159.419V28.41H168.464ZM180.434 20.085C180.434 18.855 180.014 17.865 179.174 17.115C178.514 16.605 177.749 16.35 176.879 16.35C174.929 16.35 173.519 17.115 172.649 18.645C172.079 19.605 171.794 20.82 171.794 22.29C171.794 24.3 172.424 25.875 173.684 27.015C174.704 27.945 176.039 28.41 177.689 28.41H179.309C180.059 28.41 180.434 28.035 180.434 27.285V20.085Z"
    fill="#36419E"
  ></path>
  <path
    d="M15.225 45.695C15.495 45.695 15.725 45.79 15.915 45.98C16.105 46.17 16.2 46.4 16.2 46.67C16.2 46.94 16.105 47.17 15.915 47.36C15.725 47.55 15.495 47.645 15.225 47.645C14.965 47.645 14.74 47.55 14.55 47.36C14.36 47.17 14.265 46.94 14.265 46.67C14.265 46.4 14.36 46.17 14.55 45.98C14.74 45.79 14.965 45.695 15.225 45.695ZM17.52 45.695C17.78 45.695 18.005 45.79 18.195 45.98C18.385 46.17 18.48 46.4 18.48 46.67C18.48 46.94 18.385 47.17 18.195 47.36C18.005 47.55 17.78 47.645 17.52 47.645C17.25 47.645 17.02 47.55 16.83 47.36C16.64 47.17 16.545 46.94 16.545 46.67C16.545 46.4 16.64 46.17 16.83 45.98C17.02 45.79 17.25 45.695 17.52 45.695ZM22.68 46.1V51.245C22.68 51.345 22.675 51.42 22.665 51.47H23.445V53H22.935L22.365 52.385H22.32C22.01 52.795 21.59 53 21.06 53H12.66C12.02 53 11.465 52.795 10.995 52.385C10.355 51.855 10.035 51.16 10.035 50.3V47.93L10.965 47.18H11.865V50.3C11.865 50.65 11.985 50.935 12.225 51.155C12.455 51.365 12.72 51.47 13.02 51.47H20.43C20.56 51.47 20.67 51.425 20.76 51.335C20.82 51.255 20.85 51.16 20.85 51.05V46.1H22.68ZM27.8548 46.1V51.35C27.8548 51.74 27.7248 52.1 27.4648 52.43C27.1348 52.81 26.7248 53 26.2348 53H23.3398V51.47H25.6498C25.7598 51.47 25.8548 51.43 25.9348 51.35C26.0048 51.28 26.0398 51.195 26.0398 51.095V46.1H27.8548ZM24.5698 54.095C24.8398 54.095 25.0698 54.19 25.2598 54.38C25.4498 54.57 25.5448 54.8 25.5448 55.07C25.5448 55.34 25.4498 55.57 25.2598 55.76C25.0698 55.95 24.8398 56.045 24.5698 56.045C24.3098 56.045 24.0848 55.95 23.8948 55.76C23.7048 55.57 23.6098 55.34 23.6098 55.07C23.6098 54.8 23.7048 54.57 23.8948 54.38C24.0848 54.19 24.3098 54.095 24.5698 54.095ZM26.8648 54.095C27.1348 54.095 27.3598 54.19 27.5398 54.38C27.7298 54.57 27.8248 54.8 27.8248 55.07C27.8248 55.34 27.7298 55.57 27.5398 55.76C27.3598 55.95 27.1348 56.045 26.8648 56.045C26.5948 56.045 26.3648 55.95 26.1748 55.76C25.9848 55.57 25.8898 55.34 25.8898 55.07C25.8898 54.8 25.9848 54.57 26.1748 54.38C26.3648 54.19 26.5948 54.095 26.8648 54.095ZM34.1422 46.1V52.64C34.1422 53.88 33.7622 54.84 33.0022 55.52C32.5122 55.97 31.8822 56.285 31.1122 56.465C30.7522 56.535 30.3772 56.57 29.9872 56.57C29.8572 56.57 29.6822 56.56 29.4622 56.54L28.7272 55.625V54.98C29.0472 55.03 29.3572 55.055 29.6572 55.055C31.4272 55.055 32.3122 54.195 32.3122 52.475V46.1H34.1422ZM39.4068 53C38.3068 53 37.4418 52.625 36.8118 51.875C36.2818 51.235 36.0168 50.445 36.0168 49.505C36.0168 48.385 36.3318 47.51 36.9618 46.88C37.6218 46.24 38.4668 45.92 39.4968 45.92C40.2468 45.92 40.8968 46.105 41.4468 46.475C42.1668 46.995 42.5268 47.735 42.5268 48.695V51.47H43.0068V53H42.5118C42.4418 54.08 42.0618 54.925 41.3718 55.535C40.8918 55.965 40.3168 56.26 39.6468 56.42C39.1768 56.53 38.7168 56.585 38.2668 56.585C38.1168 56.585 37.9018 56.575 37.6218 56.555H37.5768L36.8118 55.61V54.95C37.2218 55.02 37.6068 55.055 37.9668 55.055C39.6068 55.055 40.5018 54.37 40.6518 53H39.4068ZM40.6968 48.695C40.6968 48.295 40.5668 47.98 40.3068 47.75C40.0768 47.55 39.8068 47.45 39.4968 47.45C38.9868 47.45 38.5818 47.63 38.2818 47.99C37.9818 48.35 37.8318 48.845 37.8318 49.475C37.8318 50.085 37.9968 50.57 38.3268 50.93C38.6568 51.29 39.1068 51.47 39.6768 51.47H40.6968V48.695ZM50.0504 42.05V43.745L46.9154 45.665C48.2354 46.125 49.2754 46.905 50.0354 48.005C50.7154 48.985 51.0554 50.07 51.0554 51.26C51.0554 51.28 51.0554 51.315 51.0554 51.365C51.0554 51.415 51.0554 51.45 51.0554 51.47H51.5354V53H51.2504L50.7404 52.385H50.7104C50.3604 52.795 49.9354 53 49.4354 53H42.8954V51.47H48.8504C49.1104 51.47 49.2404 51.34 49.2404 51.08C49.1704 50.23 48.8654 49.45 48.3254 48.74C47.4854 47.69 46.3204 47.09 44.8304 46.94C44.7604 46.94 44.7254 46.9 44.7254 46.82V45.125L50.0504 42.05ZM55.9505 46.1V51.245V51.47H56.7155V53H56.1905L55.6355 52.385H55.6055C55.2655 52.795 54.8405 53 54.3305 53H51.4355V51.47H53.7005C53.8405 51.47 53.9405 51.43 54.0005 51.35C54.0905 51.27 54.1355 51.17 54.1355 51.05V46.1H55.9505ZM52.6955 54.095C52.9655 54.095 53.1955 54.19 53.3855 54.38C53.5755 54.57 53.6705 54.8 53.6705 55.07C53.6705 55.34 53.5755 55.57 53.3855 55.76C53.1955 55.95 52.9655 56.045 52.6955 56.045C52.4255 56.045 52.1955 55.95 52.0055 55.76C51.8155 55.57 51.7205 55.34 51.7205 55.07C51.7205 54.8 51.8155 54.57 52.0055 54.38C52.1955 54.19 52.4255 54.095 52.6955 54.095ZM54.9755 54.095C55.2455 54.095 55.4755 54.19 55.6655 54.38C55.8555 54.57 55.9505 54.8 55.9505 55.07C55.9505 55.34 55.8555 55.57 55.6655 55.76C55.4755 55.95 55.2455 56.045 54.9755 56.045C54.7155 56.045 54.4905 55.95 54.3005 55.76C54.1105 55.57 54.0155 55.34 54.0155 55.07C54.0155 54.8 54.1105 54.57 54.3005 54.38C54.4905 54.19 54.7155 54.095 54.9755 54.095ZM72.5214 46.1V51.005V51.47H73.2864V53H72.7014L72.2064 52.385H72.1764C71.8364 52.795 71.4114 53 70.9014 53H67.6914L67.1964 52.385H67.1514C66.8214 52.795 66.4014 53 65.8914 53H62.6664L62.1714 52.385H62.1264C61.7964 52.795 61.3764 53 60.8664 53H56.6064V51.47H60.2814C60.5314 51.47 60.6564 51.345 60.6564 51.095V47.825H62.4864V51.005C62.4864 51.215 62.4814 51.37 62.4714 51.47H65.3064C65.5564 51.47 65.6814 51.345 65.6814 51.095V46.955H67.5114V50.96C67.5114 51.02 67.5064 51.11 67.4964 51.23C67.4964 51.34 67.4964 51.42 67.4964 51.47H70.3164C70.5664 51.47 70.6914 51.345 70.6914 51.095V46.1H72.5214ZM77.7034 42.26V51.35C77.7034 51.77 77.5684 52.13 77.2984 52.43C76.9884 52.81 76.5834 53 76.0834 53H73.1884V51.47H75.4984C75.6084 51.47 75.7034 51.43 75.7834 51.35C75.8534 51.28 75.8884 51.195 75.8884 51.095V42.26H77.7034ZM81.6062 42.26V52.625L80.6762 53.375H79.7762V42.26H81.6062ZM88.1277 52.94C87.6977 53.06 87.2777 53.12 86.8677 53.12C85.8077 53.12 84.9477 52.71 84.2877 51.89C83.7477 51.2 83.4777 50.385 83.4777 49.445C83.4777 48.415 83.7827 47.58 84.3927 46.94C85.0227 46.26 85.8777 45.92 86.9577 45.92C87.7577 45.92 88.4277 46.125 88.9677 46.535C89.6477 47.025 89.9877 47.745 89.9877 48.695V52.64C89.9877 53.93 89.5777 54.92 88.7577 55.61C88.2877 56.01 87.7027 56.29 87.0027 56.45C86.6527 56.53 86.2627 56.57 85.8327 56.57C85.7227 56.57 85.5477 56.56 85.3077 56.54L84.5727 55.625V54.98C84.8927 55.03 85.2077 55.055 85.5177 55.055C87.1277 55.055 87.9977 54.35 88.1277 52.94ZM88.1577 48.695C88.1577 48.265 88.0127 47.935 87.7227 47.705C87.5227 47.535 87.2677 47.45 86.9577 47.45C86.4377 47.45 86.0277 47.63 85.7277 47.99C85.4377 48.35 85.2927 48.845 85.2927 49.475C85.2927 50.125 85.4577 50.64 85.7877 51.02C86.1277 51.39 86.5877 51.575 87.1677 51.575C87.4877 51.575 87.8177 51.515 88.1577 51.395V48.695ZM96.3554 46.355C97.2754 46.065 98.0804 45.92 98.7704 45.92C99.9604 45.92 100.93 46.305 101.68 47.075C102.34 47.765 102.67 48.62 102.67 49.64V51.35C102.67 51.81 102.51 52.2 102.19 52.52C101.87 52.84 101.49 53 101.05 53H98.3204C97.4504 53 96.8454 53.285 96.5054 53.855C96.3154 54.145 96.2204 54.51 96.2204 54.95C96.2204 56.41 97.1854 57.14 99.1154 57.14C99.6754 57.14 100.26 57.055 100.87 56.885V57.515L100.105 58.46C99.7154 58.58 99.2304 58.65 98.6504 58.67C97.5404 58.67 96.6154 58.41 95.8754 57.89C94.8854 57.22 94.3904 56.22 94.3904 54.89C94.3904 53.97 94.6404 53.235 95.1404 52.685C95.8504 51.875 96.9754 51.47 98.5154 51.47H100.465C100.715 51.47 100.84 51.345 100.84 51.095V49.745C100.84 49.055 100.615 48.51 100.165 48.11C99.7254 47.7 99.1254 47.495 98.3654 47.495C97.8754 47.495 97.2054 47.6 96.3554 47.81V46.355ZM98.9654 54.095C99.2354 54.095 99.4654 54.19 99.6554 54.38C99.8454 54.57 99.9404 54.8 99.9404 55.07C99.9404 55.34 99.8454 55.57 99.6554 55.76C99.4654 55.95 99.2354 56.045 98.9654 56.045C98.6954 56.045 98.4654 55.95 98.2754 55.76C98.0854 55.57 97.9904 55.34 97.9904 55.07C97.9904 54.8 98.0854 54.57 98.2754 54.38C98.4654 54.19 98.6954 54.095 98.9654 54.095ZM106.362 42.26V51.095C106.362 51.195 106.392 51.275 106.452 51.335C106.512 51.425 106.607 51.47 106.737 51.47H107.127V53H106.152C105.742 53 105.382 52.855 105.072 52.565C104.712 52.235 104.532 51.83 104.532 51.35V42.26H106.362ZM109.021 46.355C110.011 46.065 110.876 45.92 111.616 45.92C112.826 45.92 113.801 46.3 114.541 47.06C115.211 47.75 115.546 48.61 115.546 49.64V51.35C115.546 51.76 115.406 52.13 115.126 52.46C114.796 52.82 114.396 53 113.926 53H107.026V51.47H113.341C113.591 51.47 113.716 51.345 113.716 51.095V49.745C113.716 49.045 113.486 48.495 113.026 48.095C112.576 47.695 111.951 47.495 111.151 47.495C110.691 47.495 109.981 47.6 109.021 47.81V46.355ZM111.121 54.095C111.391 54.095 111.621 54.19 111.811 54.38C112.001 54.57 112.096 54.8 112.096 55.07C112.096 55.34 112.001 55.57 111.811 55.76C111.621 55.95 111.391 56.045 111.121 56.045C110.861 56.045 110.636 55.95 110.446 55.76C110.256 55.57 110.161 55.34 110.161 55.07C110.161 54.8 110.256 54.57 110.446 54.38C110.636 54.19 110.861 54.095 111.121 54.095ZM120.005 42.8C120.275 42.8 120.505 42.895 120.695 43.085C120.885 43.275 120.98 43.505 120.98 43.775C120.98 44.035 120.885 44.26 120.695 44.45C120.505 44.64 120.275 44.735 120.005 44.735C119.735 44.735 119.505 44.645 119.315 44.465C119.135 44.275 119.045 44.045 119.045 43.775C119.045 43.505 119.135 43.275 119.315 43.085C119.505 42.895 119.735 42.8 120.005 42.8ZM120.92 46.1V51.47H121.685V53H120.905C120.825 54.21 120.345 55.135 119.465 55.775C118.745 56.295 117.855 56.555 116.795 56.555C116.665 56.555 116.48 56.55 116.24 56.54L115.505 55.625V54.98C115.825 55.03 116.135 55.055 116.435 55.055C118.205 55.055 119.09 54.195 119.09 52.475V46.1H120.92ZM126.102 42.26V51.245V51.47H126.867V53H126.357L125.787 52.385H125.757C125.417 52.795 124.992 53 124.482 53H121.587V51.47H123.897C124.017 51.47 124.117 51.43 124.197 51.35C124.257 51.25 124.287 51.165 124.287 51.095V42.26H126.102ZM131.273 42.26V51.35C131.273 51.77 131.138 52.13 130.868 52.43C130.558 52.81 130.153 53 129.653 53H126.758V51.47H129.068C129.178 51.47 129.273 51.43 129.353 51.35C129.423 51.28 129.458 51.195 129.458 51.095V42.26H131.273Z"
    fill="black"
  ></path>
</svg>
