<svg width="192" height="67" viewBox="0 0 192 67" fill="none" xmlns="http://www.w3.org/2000/svg">
<path d="M18.675 19.085C19.485 19.085 20.175 19.37 20.745 19.94C21.315 20.51 21.6 21.2 21.6 22.01C21.6 22.82 21.315 23.51 20.745 24.08C20.175 24.65 19.485 24.935 18.675 24.935C17.895 24.935 17.22 24.65 16.65 24.08C16.08 23.51 15.795 22.82 15.795 22.01C15.795 21.2 16.08 20.51 16.65 19.94C17.22 19.37 17.895 19.085 18.675 19.085ZM25.56 19.085C26.34 19.085 27.015 19.37 27.585 19.94C28.155 20.51 28.44 21.2 28.44 22.01C28.44 22.82 28.155 23.51 27.585 24.08C27.015 24.65 26.34 24.935 25.56 24.935C24.75 24.935 24.06 24.65 23.49 24.08C22.92 23.51 22.635 22.82 22.635 22.01C22.635 21.2 22.92 20.51 23.49 19.94C24.06 19.37 24.75 19.085 25.56 19.085ZM41.04 20.3V36.05C41.04 37.31 40.65 38.375 39.87 39.245C38.91 40.415 37.68 41 36.18 41H10.98C9.03 41 7.35 40.37 5.94 39.11C4.05 37.52 3.105 35.45 3.105 32.9V25.79L5.895 23.54H8.595V32.9C8.595 33.95 8.955 34.805 9.675 35.465C10.365 36.095 11.16 36.41 12.06 36.41H34.425C35.175 36.41 35.55 36.035 35.55 35.285V20.3H41.04ZM52.76 8.78V35.285C52.76 35.585 52.85 35.825 53.03 36.005C53.21 36.275 53.495 36.41 53.885 36.41H55.055V41H52.13C50.9 41 49.82 40.565 48.89 39.695C47.81 38.705 47.27 37.49 47.27 36.05V8.78H52.76ZM63.0777 36.41V41H54.7527V36.41H63.0777ZM71.0757 36.41V41H62.7507V36.41H71.0757ZM79.0738 36.41V41H70.7488V36.41H79.0738ZM87.0718 36.41V41H78.7468V36.41H87.0718ZM95.0699 36.41V41H86.7449V36.41H95.0699ZM103.068 36.41V41H94.7429V36.41H103.068ZM111.066 36.41V41H102.741V36.41H111.066ZM119.064 36.41V41H110.739V36.41H119.064ZM124.722 21.065C127.692 20.195 130.287 19.76 132.507 19.76C136.137 19.76 139.062 20.9 141.282 23.18C143.292 25.25 144.297 27.83 144.297 30.92V36.05C144.297 37.28 143.877 38.39 143.037 39.38C142.047 40.46 140.847 41 139.437 41H118.737V36.41H137.682C138.432 36.41 138.807 36.035 138.807 35.285V31.235C138.807 29.135 138.117 27.485 136.737 26.285C135.387 25.085 133.512 24.485 131.112 24.485C129.732 24.485 127.602 24.8 124.722 25.43V21.065ZM160.417 20.3V36.41H162.712V41H160.372C160.132 44.6 158.707 47.36 156.097 49.28C153.937 50.87 151.282 51.665 148.132 51.665C147.592 51.665 147.007 51.65 146.377 51.62L144.172 48.875V46.94C145.132 47.09 146.062 47.165 146.962 47.165C152.272 47.165 154.927 44.585 154.927 39.425V20.3H160.417ZM179.879 10.4C180.689 10.4 181.379 10.685 181.949 11.255C182.519 11.825 182.804 12.515 182.804 13.325C182.804 14.105 182.519 14.78 181.949 15.35C181.379 15.92 180.689 16.205 179.879 16.205C179.099 16.205 178.424 15.92 177.854 15.35C177.284 14.78 176.999 14.105 176.999 13.325C176.999 12.515 177.284 11.825 177.854 11.255C178.424 10.685 179.099 10.4 179.879 10.4ZM171.464 36.41C170.774 35.54 170.234 34.505 169.844 33.305C169.514 32.165 169.349 31.025 169.349 29.885C169.349 27.245 170.114 25.04 171.644 23.27C173.594 20.93 176.339 19.76 179.879 19.76C182.399 19.76 184.499 20.435 186.179 21.785C188.009 23.345 188.924 25.445 188.924 28.085V36.05C188.924 37.28 188.519 38.375 187.709 39.335C186.749 40.445 185.534 41 184.064 41H162.419V36.41H171.464ZM183.434 28.085C183.434 26.855 183.014 25.865 182.174 25.115C181.514 24.605 180.749 24.35 179.879 24.35C177.929 24.35 176.519 25.115 175.649 26.645C175.079 27.605 174.794 28.82 174.794 30.29C174.794 32.3 175.424 33.875 176.684 35.015C177.704 35.945 179.039 36.41 180.689 36.41H182.309C183.059 36.41 183.434 36.035 183.434 35.285V28.085Z" fill="#1677FF"/>
<path d="M18.225 53.695C18.495 53.695 18.725 53.79 18.915 53.98C19.105 54.17 19.2 54.4 19.2 54.67C19.2 54.94 19.105 55.17 18.915 55.36C18.725 55.55 18.495 55.645 18.225 55.645C17.965 55.645 17.74 55.55 17.55 55.36C17.36 55.17 17.265 54.94 17.265 54.67C17.265 54.4 17.36 54.17 17.55 53.98C17.74 53.79 17.965 53.695 18.225 53.695ZM20.52 53.695C20.78 53.695 21.005 53.79 21.195 53.98C21.385 54.17 21.48 54.4 21.48 54.67C21.48 54.94 21.385 55.17 21.195 55.36C21.005 55.55 20.78 55.645 20.52 55.645C20.25 55.645 20.02 55.55 19.83 55.36C19.64 55.17 19.545 54.94 19.545 54.67C19.545 54.4 19.64 54.17 19.83 53.98C20.02 53.79 20.25 53.695 20.52 53.695ZM25.68 54.1V59.245C25.68 59.345 25.675 59.42 25.665 59.47H26.445V61H25.935L25.365 60.385H25.32C25.01 60.795 24.59 61 24.06 61H15.66C15.02 61 14.465 60.795 13.995 60.385C13.355 59.855 13.035 59.16 13.035 58.3V55.93L13.965 55.18H14.865V58.3C14.865 58.65 14.985 58.935 15.225 59.155C15.455 59.365 15.72 59.47 16.02 59.47H23.43C23.56 59.47 23.67 59.425 23.76 59.335C23.82 59.255 23.85 59.16 23.85 59.05V54.1H25.68ZM30.8548 54.1V59.35C30.8548 59.74 30.7248 60.1 30.4648 60.43C30.1348 60.81 29.7248 61 29.2348 61H26.3398V59.47H28.6498C28.7598 59.47 28.8548 59.43 28.9348 59.35C29.0048 59.28 29.0398 59.195 29.0398 59.095V54.1H30.8548ZM27.5698 62.095C27.8398 62.095 28.0698 62.19 28.2598 62.38C28.4498 62.57 28.5448 62.8 28.5448 63.07C28.5448 63.34 28.4498 63.57 28.2598 63.76C28.0698 63.95 27.8398 64.045 27.5698 64.045C27.3098 64.045 27.0848 63.95 26.8948 63.76C26.7048 63.57 26.6098 63.34 26.6098 63.07C26.6098 62.8 26.7048 62.57 26.8948 62.38C27.0848 62.19 27.3098 62.095 27.5698 62.095ZM29.8648 62.095C30.1348 62.095 30.3598 62.19 30.5398 62.38C30.7298 62.57 30.8248 62.8 30.8248 63.07C30.8248 63.34 30.7298 63.57 30.5398 63.76C30.3598 63.95 30.1348 64.045 29.8648 64.045C29.5948 64.045 29.3648 63.95 29.1748 63.76C28.9848 63.57 28.8898 63.34 28.8898 63.07C28.8898 62.8 28.9848 62.57 29.1748 62.38C29.3648 62.19 29.5948 62.095 29.8648 62.095ZM37.1422 54.1V60.64C37.1422 61.88 36.7622 62.84 36.0022 63.52C35.5122 63.97 34.8822 64.285 34.1122 64.465C33.7522 64.535 33.3772 64.57 32.9872 64.57C32.8572 64.57 32.6822 64.56 32.4622 64.54L31.7272 63.625V62.98C32.0472 63.03 32.3572 63.055 32.6572 63.055C34.4272 63.055 35.3122 62.195 35.3122 60.475V54.1H37.1422ZM42.4068 61C41.3068 61 40.4418 60.625 39.8118 59.875C39.2818 59.235 39.0168 58.445 39.0168 57.505C39.0168 56.385 39.3318 55.51 39.9618 54.88C40.6218 54.24 41.4668 53.92 42.4968 53.92C43.2468 53.92 43.8968 54.105 44.4468 54.475C45.1668 54.995 45.5268 55.735 45.5268 56.695V59.47H46.0068V61H45.5118C45.4418 62.08 45.0618 62.925 44.3718 63.535C43.8918 63.965 43.3168 64.26 42.6468 64.42C42.1768 64.53 41.7168 64.585 41.2668 64.585C41.1168 64.585 40.9018 64.575 40.6218 64.555H40.5768L39.8118 63.61V62.95C40.2218 63.02 40.6068 63.055 40.9668 63.055C42.6068 63.055 43.5018 62.37 43.6518 61H42.4068ZM43.6968 56.695C43.6968 56.295 43.5668 55.98 43.3068 55.75C43.0768 55.55 42.8068 55.45 42.4968 55.45C41.9868 55.45 41.5818 55.63 41.2818 55.99C40.9818 56.35 40.8318 56.845 40.8318 57.475C40.8318 58.085 40.9968 58.57 41.3268 58.93C41.6568 59.29 42.1068 59.47 42.6768 59.47H43.6968V56.695ZM53.0504 50.05V51.745L49.9154 53.665C51.2354 54.125 52.2754 54.905 53.0354 56.005C53.7154 56.985 54.0554 58.07 54.0554 59.26C54.0554 59.28 54.0554 59.315 54.0554 59.365C54.0554 59.415 54.0554 59.45 54.0554 59.47H54.5354V61H54.2504L53.7404 60.385H53.7104C53.3604 60.795 52.9354 61 52.4354 61H45.8954V59.47H51.8504C52.1104 59.47 52.2404 59.34 52.2404 59.08C52.1704 58.23 51.8654 57.45 51.3254 56.74C50.4854 55.69 49.3204 55.09 47.8304 54.94C47.7604 54.94 47.7254 54.9 47.7254 54.82V53.125L53.0504 50.05ZM58.9505 54.1V59.245V59.47H59.7155V61H59.1905L58.6355 60.385H58.6055C58.2655 60.795 57.8405 61 57.3305 61H54.4355V59.47H56.7005C56.8405 59.47 56.9405 59.43 57.0005 59.35C57.0905 59.27 57.1355 59.17 57.1355 59.05V54.1H58.9505ZM55.6955 62.095C55.9655 62.095 56.1955 62.19 56.3855 62.38C56.5755 62.57 56.6705 62.8 56.6705 63.07C56.6705 63.34 56.5755 63.57 56.3855 63.76C56.1955 63.95 55.9655 64.045 55.6955 64.045C55.4255 64.045 55.1955 63.95 55.0055 63.76C54.8155 63.57 54.7205 63.34 54.7205 63.07C54.7205 62.8 54.8155 62.57 55.0055 62.38C55.1955 62.19 55.4255 62.095 55.6955 62.095ZM57.9755 62.095C58.2455 62.095 58.4755 62.19 58.6655 62.38C58.8555 62.57 58.9505 62.8 58.9505 63.07C58.9505 63.34 58.8555 63.57 58.6655 63.76C58.4755 63.95 58.2455 64.045 57.9755 64.045C57.7155 64.045 57.4905 63.95 57.3005 63.76C57.1105 63.57 57.0155 63.34 57.0155 63.07C57.0155 62.8 57.1105 62.57 57.3005 62.38C57.4905 62.19 57.7155 62.095 57.9755 62.095ZM75.5214 54.1V59.005V59.47H76.2864V61H75.7014L75.2064 60.385H75.1764C74.8364 60.795 74.4114 61 73.9014 61H70.6914L70.1964 60.385H70.1514C69.8214 60.795 69.4014 61 68.8914 61H65.6664L65.1714 60.385H65.1264C64.7964 60.795 64.3764 61 63.8664 61H59.6064V59.47H63.2814C63.5314 59.47 63.6564 59.345 63.6564 59.095V55.825H65.4864V59.005C65.4864 59.215 65.4814 59.37 65.4714 59.47H68.3064C68.5564 59.47 68.6814 59.345 68.6814 59.095V54.955H70.5114V58.96C70.5114 59.02 70.5064 59.11 70.4964 59.23C70.4964 59.34 70.4964 59.42 70.4964 59.47H73.3164C73.5664 59.47 73.6914 59.345 73.6914 59.095V54.1H75.5214ZM80.7034 50.26V59.35C80.7034 59.77 80.5684 60.13 80.2984 60.43C79.9884 60.81 79.5834 61 79.0834 61H76.1884V59.47H78.4984C78.6084 59.47 78.7034 59.43 78.7834 59.35C78.8534 59.28 78.8884 59.195 78.8884 59.095V50.26H80.7034ZM84.6062 50.26V60.625L83.6762 61.375H82.7762V50.26H84.6062ZM91.1277 60.94C90.6977 61.06 90.2777 61.12 89.8677 61.12C88.8077 61.12 87.9477 60.71 87.2877 59.89C86.7477 59.2 86.4777 58.385 86.4777 57.445C86.4777 56.415 86.7827 55.58 87.3927 54.94C88.0227 54.26 88.8777 53.92 89.9577 53.92C90.7577 53.92 91.4277 54.125 91.9677 54.535C92.6477 55.025 92.9877 55.745 92.9877 56.695V60.64C92.9877 61.93 92.5777 62.92 91.7577 63.61C91.2877 64.01 90.7027 64.29 90.0027 64.45C89.6527 64.53 89.2627 64.57 88.8327 64.57C88.7227 64.57 88.5477 64.56 88.3077 64.54L87.5727 63.625V62.98C87.8927 63.03 88.2077 63.055 88.5177 63.055C90.1277 63.055 90.9977 62.35 91.1277 60.94ZM91.1577 56.695C91.1577 56.265 91.0127 55.935 90.7227 55.705C90.5227 55.535 90.2677 55.45 89.9577 55.45C89.4377 55.45 89.0277 55.63 88.7277 55.99C88.4377 56.35 88.2927 56.845 88.2927 57.475C88.2927 58.125 88.4577 58.64 88.7877 59.02C89.1277 59.39 89.5877 59.575 90.1677 59.575C90.4877 59.575 90.8177 59.515 91.1577 59.395V56.695ZM99.3554 54.355C100.275 54.065 101.08 53.92 101.77 53.92C102.96 53.92 103.93 54.305 104.68 55.075C105.34 55.765 105.67 56.62 105.67 57.64V59.35C105.67 59.81 105.51 60.2 105.19 60.52C104.87 60.84 104.49 61 104.05 61H101.32C100.45 61 99.8454 61.285 99.5054 61.855C99.3154 62.145 99.2204 62.51 99.2204 62.95C99.2204 64.41 100.185 65.14 102.115 65.14C102.675 65.14 103.26 65.055 103.87 64.885V65.515L103.105 66.46C102.715 66.58 102.23 66.65 101.65 66.67C100.54 66.67 99.6154 66.41 98.8754 65.89C97.8854 65.22 97.3904 64.22 97.3904 62.89C97.3904 61.97 97.6404 61.235 98.1404 60.685C98.8504 59.875 99.9754 59.47 101.515 59.47H103.465C103.715 59.47 103.84 59.345 103.84 59.095V57.745C103.84 57.055 103.615 56.51 103.165 56.11C102.725 55.7 102.125 55.495 101.365 55.495C100.875 55.495 100.205 55.6 99.3554 55.81V54.355ZM101.965 62.095C102.235 62.095 102.465 62.19 102.655 62.38C102.845 62.57 102.94 62.8 102.94 63.07C102.94 63.34 102.845 63.57 102.655 63.76C102.465 63.95 102.235 64.045 101.965 64.045C101.695 64.045 101.465 63.95 101.275 63.76C101.085 63.57 100.99 63.34 100.99 63.07C100.99 62.8 101.085 62.57 101.275 62.38C101.465 62.19 101.695 62.095 101.965 62.095ZM109.362 50.26V59.095C109.362 59.195 109.392 59.275 109.452 59.335C109.512 59.425 109.607 59.47 109.737 59.47H110.127V61H109.152C108.742 61 108.382 60.855 108.072 60.565C107.712 60.235 107.532 59.83 107.532 59.35V50.26H109.362ZM112.021 54.355C113.011 54.065 113.876 53.92 114.616 53.92C115.826 53.92 116.801 54.3 117.541 55.06C118.211 55.75 118.546 56.61 118.546 57.64V59.35C118.546 59.76 118.406 60.13 118.126 60.46C117.796 60.82 117.396 61 116.926 61H110.026V59.47H116.341C116.591 59.47 116.716 59.345 116.716 59.095V57.745C116.716 57.045 116.486 56.495 116.026 56.095C115.576 55.695 114.951 55.495 114.151 55.495C113.691 55.495 112.981 55.6 112.021 55.81V54.355ZM114.121 62.095C114.391 62.095 114.621 62.19 114.811 62.38C115.001 62.57 115.096 62.8 115.096 63.07C115.096 63.34 115.001 63.57 114.811 63.76C114.621 63.95 114.391 64.045 114.121 64.045C113.861 64.045 113.636 63.95 113.446 63.76C113.256 63.57 113.161 63.34 113.161 63.07C113.161 62.8 113.256 62.57 113.446 62.38C113.636 62.19 113.861 62.095 114.121 62.095ZM123.005 50.8C123.275 50.8 123.505 50.895 123.695 51.085C123.885 51.275 123.98 51.505 123.98 51.775C123.98 52.035 123.885 52.26 123.695 52.45C123.505 52.64 123.275 52.735 123.005 52.735C122.735 52.735 122.505 52.645 122.315 52.465C122.135 52.275 122.045 52.045 122.045 51.775C122.045 51.505 122.135 51.275 122.315 51.085C122.505 50.895 122.735 50.8 123.005 50.8ZM123.92 54.1V59.47H124.685V61H123.905C123.825 62.21 123.345 63.135 122.465 63.775C121.745 64.295 120.855 64.555 119.795 64.555C119.665 64.555 119.48 64.55 119.24 64.54L118.505 63.625V62.98C118.825 63.03 119.135 63.055 119.435 63.055C121.205 63.055 122.09 62.195 122.09 60.475V54.1H123.92ZM129.102 50.26V59.245V59.47H129.867V61H129.357L128.787 60.385H128.757C128.417 60.795 127.992 61 127.482 61H124.587V59.47H126.897C127.017 59.47 127.117 59.43 127.197 59.35C127.257 59.25 127.287 59.165 127.287 59.095V50.26H129.102ZM134.273 50.26V59.35C134.273 59.77 134.138 60.13 133.868 60.43C133.558 60.81 133.153 61 132.653 61H129.758V59.47H132.068C132.178 59.47 132.273 59.43 132.353 59.35C132.423 59.28 132.458 59.195 132.458 59.095V50.26H134.273Z" fill="black"/>
</svg>
