<svg width="27" height="34" viewBox="0 0 27 34" fill="none" xmlns="http://www.w3.org/2000/svg">
<path d="M14.2431 5.6C13.7365 6.26667 13.3631 6.89333 13.1231 7.48C12.8831 8.04 12.7631 8.70667 12.7631 9.48V15.16H15.4431C17.7631 15.16 19.6431 14.6133 21.0831 13.52L21.7631 14.24C20.2431 16.5867 17.7898 17.76 14.4031 17.76H12.7631V25.36C12.7631 27.2267 12.3365 28.8133 11.4831 30.12C10.6565 31.4533 9.37646 32.6667 7.64313 33.76L6.80313 32.8C7.46979 32.08 7.80313 30.7867 7.80313 28.92V17.76H4.16313L6.16313 15.16H7.80313V11.8C7.80313 9.88 9.05646 7.81333 11.5631 5.6L6.08313 5.56C4.37646 5.56 2.82979 6.37333 1.44313 8L0.603125 7.16C1.82979 5.50667 3.09646 4.2 4.40313 3.24C5.73646 2.28 7.25646 1.8 8.96313 1.8H18.5231C19.8031 1.8 21.0965 1.69333 22.4031 1.48C23.7098 1.24 24.7098 0.826665 25.4031 0.239999L26.0031 0.96C25.1498 2.26667 23.9765 3.37333 22.4831 4.28C20.9898 5.16 19.3498 5.6 17.5631 5.6H14.2431Z" fill="#1677FF"/>
</svg>
